<svg xmlns="http://www.w3.org/2000/svg" width="147" height="79" viewBox="0 0 147 79">
  <defs>
    <linearGradient id="logo-a" x1="83.239%" x2="50%" y1="0%" y2="100%">
      <stop offset="0%" stop-color="#008AE8"/>
      <stop offset="100%" stop-color="#0052CC"/>
    </linearGradient>
  </defs>
  <path fill="url(#logo-a)" fill-rule="evenodd" d="M36.75,0 C16.5709094,0 0,17.8109095 0,39.5 C0,61.62 16.17,79 36.75,79 C51.45,79 61.0259863,70.7897173 69.1109863,60.5197173 C70.2442235,55.546875 68.5275899,51.723045 65.3899452,49.0083038 C65.1925575,48.8591904 63.6234375,47.5461651 60.178125,46.659375 C53.563125,56.139375 47.04,63.2 36.75,63.2 C24.255,63.2 14.7,52.93 14.7,39.5 C14.7,26.4290945 24.5890906,15.8 36.75,15.8 C43.9774998,15.8 48.7168283,18.499938 53.5171875,23.453125 C58.3175467,28.4063144 62.7046875,35.796875 67.2984375,43.696875 C71.8921875,51.596875 76.692546,60.0063144 83.3765625,66.903125 C90.060579,73.7999356 99.1024975,79 110.25,79 C130.429094,79 147,61.1890945 147,39.5 C147,17.38 130.83,0 110.25,0 C95.55,0 85.9490625,7.99875 77.8640625,18.26875 C74.3805433,23.453125 77.1743168,29.5982985 79.7015625,30.5019608 C80.9335533,30.9274826 81.9072578,31.5952011 86.2874893,31.5952011 C92.9024893,21.3252011 99.96,15.8 110.25,15.8 C122.745,15.8 132.3,26.07 132.3,39.5 C132.3,52.5709055 122.410906,63.2 110.25,63.2 C103.022502,63.2 98.283171,60.5000644 93.4828125,55.546875 C88.682454,50.5936856 84.2953125,43.203125 79.7015625,35.303125 C75.1078125,27.403125 70.307454,18.993688 63.6234375,12.096875 C56.9394217,5.20006203 47.8975002,0 36.75,0 Z"/>
</svg>
